{
    "asset" : {
        "generator" : "Khronos glTF Blender I/O v1.7.33",
        "version" : "2.0"
    },
    "scene" : 0,
    "scenes" : [
        {
            "name" : "Scene",
            "nodes" : [
                0
            ]
        }
    ],
    "nodes" : [
        {
            "mesh" : 0,
            "name" : "Cube.002",
            "rotation" : [
                0,
                0.7071068286895752,
                0,
                0.7071068286895752
            ],
            "scale" : [
                0.05000000074505806,
                5,
                0.05000000074505806
            ]
        }
    ],
    "materials" : [
        {
            "doubleSided" : true,
            "name" : "Plant.009",
            "pbrMetallicRoughness" : {
                "baseColorFactor" : [
                    0.10668272525072098,
                    0.223409965634346,
                    0.03435448929667473,
                    1
                ],
                "metallicFactor" : 0,
                "roughnessFactor" : 0.5
            }
        }
    ],
    "meshes" : [
        {
            "name" : "Cube.099",
            "primitives" : [
                {
                    "attributes" : {
                        "POSITION" : 0,
                        "NORMAL" : 1,
                        "TEXCOORD_0" : 2
                    },
                    "indices" : 3,
                    "material" : 0
                }
            ]
        }
    ],
    "accessors" : [
        {
            "bufferView" : 0,
            "componentType" : 5126,
            "count" : 6158,
            "max" : [
                29.016630172729492,
                0.7133802771568298,
                29.051979064941406
            ],
            "min" : [
                -28.98345947265625,
                -0.8666254281997681,
                -28.94810676574707
            ],
            "type" : "VEC3"
        },
        {
            "bufferView" : 1,
            "componentType" : 5126,
            "count" : 6158,
            "type" : "VEC3"
        },
        {
            "bufferView" : 2,
            "componentType" : 5126,
            "count" : 6158,
            "type" : "VEC2"
        },
        {
            "bufferView" : 3,
            "componentType" : 5123,
            "count" : 11166,
            "type" : "SCALAR"
        }
    ],
    "bufferViews" : [
        {
            "buffer" : 0,
            "byteLength" : 73896,
            "byteOffset" : 0
        },
        {
            "buffer" : 0,
            "byteLength" : 73896,
            "byteOffset" : 73896
        },
        {
            "buffer" : 0,
            "byteLength" : 49264,
            "byteOffset" : 147792
        },
        {
            "buffer" : 0,
            "byteLength" : 22332,
            "byteOffset" : 197056
        }
    ],
    "buffers" : [
        {
            "byteLength" : 219388,
            "uri" : "data:application/octet-stream;base64,"
        }
    ]
}
